<svg xmlns="http://www.w3.org/2000/svg" viewBox="0 0 512 512"><path fill="#fe4242" d="M318.9 243.3L457 105.2c13.7-13.7 13.7-36 0-49.7l-.5-.5c-13.7-13.7-36-13.7-49.7 0L268.7 193.1c-6.9 6.9-18.2 6.9-25.1 0L105.2 55c-13.7-13.7-36-13.7-49.7 0l-.5.5c-13.7 13.7-13.7 36 0 49.7l138.1 138.1c6.9 6.9 6.9 18.2 0 25.1L55 406.8c-13.7 13.7-13.7 36 0 49.7l.5.5c13.7 13.7 36 13.7 49.7 0l138.1-138.1c6.9-6.9 18.2-6.9 25.1 0L406.5 457c13.7 13.7 36 13.7 49.7 0l.5-.5c13.7-13.7 13.7-36 0-49.7L318.6 268.7c-6.6-7.4-6.6-18.3.3-25.4z"/></svg>
