<svg xmlns="http://www.w3.org/2000/svg" fill="none" viewBox="0 0 16 16"><g clip-path="url(#a)"><path fill="#868BB4" stroke="#fff" stroke-width=".1" d="M1.9 10.606h12.203c1.075 0 1.95-.875 1.95-1.95V7.344c0-1.075-.875-1.95-1.95-1.95H1.9c-1.074 0-1.95.875-1.95 1.95v1.312c0 1.075.876 1.95 1.95 1.95Zm-.6-3.26c0-.33.271-.6.6-.6h12.203c.332 0 .6.272.6.6V8.66c0 .332-.271.6-.6.6H1.9a.602.602 0 0 1-.6-.6V7.347Z"/><g fill="#010101"><path d="M10.578 3.828a.623.623 0 0 1-.44-.184L8 1.506 5.862 3.644a.626.626 0 0 1-.884-.885L7.56.184a.626.626 0 0 1 .885 0l2.578 2.579a.626.626 0 0 1 0 .884c-.244.244-.281.184-.44.184l-.004-.003ZM8 16a.623.623 0 0 1-.44-.184L4.98 13.237a.626.626 0 0 1 .885-.884l2.137 2.138 2.138-2.138a.626.626 0 0 1 .884.885l-2.578 2.578a.623.623 0 0 1-.44.184H8Z"/></g></g><defs><clipPath id="a"><path fill="#fff" d="M0 0h16v16H0z"/></clipPath></defs></svg>