<svg xmlns="http://www.w3.org/2000/svg" fill="none" viewBox="0 0 14 14"><g fill="#868BB4"><path d="M6.404 5.831H1.64C.736 5.831 0 6.567 0 7.471v4.764c0 .905.736 1.64 1.64 1.64h4.764c.905 0 1.64-.735 1.64-1.64V7.472c0-.905-.735-1.641-1.64-1.641Zm.547 6.404c0 .3-.246.547-.547.547H1.64a.548.548 0 0 1-.547-.547V7.472c0-.301.246-.547.547-.547h4.763c.3 0 .547.246.547.547v4.763ZM12.36 5.831h-1.742c-.905 0-1.641.736-1.641 1.64v4.764c0 .905.736 1.64 1.64 1.64h1.742c.906 0 1.641-.735 1.641-1.64V7.472c0-.905-.735-1.641-1.64-1.641Zm.546 6.404c0 .3-.246.547-.546.547h-1.742a.549.549 0 0 1-.547-.547V7.472c0-.301.246-.547.547-.547h1.742c.3 0 .546.246.546.547v4.763ZM6.404.124H1.64C.736.124 0 .86 0 1.765v1.427c0 .905.736 1.641 1.64 1.641h4.764c.905 0 1.64-.736 1.64-1.64V1.764c0-.905-.735-1.64-1.64-1.64Zm.547 3.068c0 .301-.246.547-.547.547H1.64a.548.548 0 0 1-.547-.547V1.765c0-.3.246-.547.547-.547h4.763c.3 0 .547.246.547.547v1.427ZM12.36.124h-1.742c-.905 0-1.641.736-1.641 1.641v1.427c0 .905.736 1.641 1.64 1.641h1.742c.906 0 1.641-.736 1.641-1.64V1.764c0-.905-.735-1.64-1.64-1.64Zm.546 3.068c0 .301-.246.547-.546.547h-1.742a.548.548 0 0 1-.547-.547V1.765c0-.3.246-.547.547-.547h1.742c.3 0 .546.246.546.547v1.427Z"/></g></svg>