<svg xmlns="http://www.w3.org/2000/svg" fill="none" viewBox="0 0 16 15"><g fill="#868BB4"><path d="M15.169 1.25h-2.722a.627.627 0 0 1-.625-.625c0-.344.281-.625.625-.625h2.722c.343 0 .625.281.625.625a.627.627 0 0 1-.625.625ZM15.375 14.469H4.978a.627.627 0 0 1-.625-.625c0-.344.281-.625.625-.625h10.397c.344 0 .625.281.625.625a.627.627 0 0 1-.625.625ZM15.375 7.75h-4.766a.627.627 0 0 1-.625-.625c0-.344.282-.625.625-.625h4.766c.344 0 .625.281.625.625a.627.627 0 0 1-.625.625Z"/></g><path fill="#010101" fill-rule="evenodd" d="M0 13.844c0 .344.281.625.625.625a.627.627 0 0 0 .625-.625V8.466h2.275a4.136 4.136 0 0 0 4.131-4.132v-.203A4.136 4.136 0 0 0 3.525 0h-2.9A.627.627 0 0 0 0 .625V13.844ZM1.25 1.25v5.966h2.275a2.886 2.886 0 0 0 2.881-2.882v-.203A2.886 2.886 0 0 0 3.525 1.25H1.25Z" clip-rule="evenodd"/></svg>