<svg xmlns="http://www.w3.org/2000/svg" fill="none" viewBox="0 0 14 16"><g clip-path="url(#a)"><path fill="#545A84" d="M13.266 8.428a.627.627 0 0 0-.625.625 5.704 5.704 0 0 1-5.697 5.697A5.702 5.702 0 0 1 1.25 9.053a5.701 5.701 0 0 1 5.697-5.694h4.884L10.77 4.422a.626.626 0 0 0 .44 1.068c.16 0 .32-.062.441-.184l2.119-2.119a.62.62 0 0 0 0-.881L11.65.184a.626.626 0 0 0-.884.885l1.04 1.04H6.944A6.9 6.9 0 0 0 2.03 4.144 6.908 6.908 0 0 0 0 9.053c0 1.853.722 3.6 2.034 4.912A6.9 6.9 0 0 0 6.947 16a6.9 6.9 0 0 0 4.912-2.035 6.9 6.9 0 0 0 2.035-4.912.644.644 0 0 0-.625-.625h-.003Z"/></g><defs><clipPath id="a"><path fill="#fff" d="M0 0h13.953v16H0z"/></clipPath></defs></svg>