<svg xmlns="http://www.w3.org/2000/svg" fill="none" viewBox="0 0 16 16"><g clip-path="url(#a)"><path fill="#868BB4" d="m13.675 9.728-1.234-.194a4.65 4.65 0 0 0-2.094-4.653l.675-1.053a5.898 5.898 0 0 1 2.725 4.985c0 2.024-.025.618-.072.915ZM1.981 9.725a5.92 5.92 0 0 1-.068-.912 5.902 5.902 0 0 1 2.725-4.985l.675 1.053a4.654 4.654 0 0 0-2.15 3.931c0 1.597.018.485.056.72l-1.235.19-.003.003ZM7.828 14.731a5.98 5.98 0 0 1-1.85-.293l.39-1.188a4.691 4.691 0 0 0 2.91 0l.388 1.188a5.919 5.919 0 0 1-1.841.29l.003.003Z"/><path fill="#000" d="M7.828 7.162a3.585 3.585 0 0 1-3.581-3.58A3.585 3.585 0 0 1 7.828 0a3.585 3.585 0 0 1 3.581 3.581 3.585 3.585 0 0 1-3.58 3.581Zm0-5.912a2.335 2.335 0 0 0-2.331 2.331 2.335 2.335 0 0 0 2.331 2.331 2.335 2.335 0 0 0 2.331-2.33A2.335 2.335 0 0 0 7.83 1.25ZM3.581 16A3.585 3.585 0 0 1 0 12.419a3.585 3.585 0 0 1 3.581-3.581 3.585 3.585 0 0 1 3.581 3.58A3.585 3.585 0 0 1 3.582 16Zm0-5.912a2.335 2.335 0 0 0-2.331 2.33 2.335 2.335 0 0 0 2.331 2.332 2.335 2.335 0 0 0 2.331-2.331 2.335 2.335 0 0 0-2.33-2.332ZM12.063 16a3.585 3.585 0 0 1-3.582-3.581 3.585 3.585 0 0 1 3.582-3.581 3.585 3.585 0 0 1 3.58 3.58A3.585 3.585 0 0 1 12.064 16Zm0-5.912a2.335 2.335 0 0 0-2.332 2.33 2.335 2.335 0 0 0 2.332 2.332 2.335 2.335 0 0 0 2.33-2.331 2.335 2.335 0 0 0-2.33-2.332Z"/></g><defs><clipPath id="a"><path fill="#fff" d="M0 0h15.647v16H0z"/></clipPath></defs></svg>