<svg xmlns="http://www.w3.org/2000/svg" fill="none" viewBox="0 0 14 16"><g fill="#868BB4"><path d="M9.128 3.828a.623.623 0 0 1-.44-.184L6.55 1.506 4.412 3.644a.626.626 0 0 1-.884-.885L6.106.184a.626.626 0 0 1 .885 0l2.578 2.578a.626.626 0 0 1-.441 1.07v-.004ZM6.55 16a.623.623 0 0 1-.44-.184L3.53 13.236a.626.626 0 0 1 .885-.884l2.137 2.138 2.138-2.138a.626.626 0 0 1 .884.884l-2.578 2.579a.623.623 0 0 1-.44.184H6.55Z"/></g><path fill="#010101" d="M12.478 8.628H.625A.627.627 0 0 1 0 8.003c0-.344.281-.625.625-.625h11.853c.344 0 .625.281.625.625a.627.627 0 0 1-.625.625Z"/></svg>