<svg xmlns="http://www.w3.org/2000/svg" fill="none" viewBox="0 0 25 15"><path fill="#868BB4" d="M7.012.683H5.644v13.433h1.368V.683ZM12.656.683H11.29v13.433h1.367V.683ZM18.523.683h-1.367v13.433h1.367V.683Z"/><path fill="#010101" d="M20.745 14.8H3.42A3.424 3.424 0 0 1 0 11.381V3.42A3.424 3.424 0 0 1 3.419 0h17.326a3.424 3.424 0 0 1 3.42 3.419v7.962a3.424 3.424 0 0 1-3.42 3.419ZM3.422 1.368c-1.131 0-2.051.92-2.051 2.05v7.963c0 1.132.92 2.051 2.051 2.051H20.75c1.131 0 2.051-.92 2.051-2.05V3.418c0-1.132-.92-2.051-2.051-2.051H3.422Z"/></svg>