<svg xmlns="http://www.w3.org/2000/svg" fill="none" viewBox="0 0 14 16"><g clip-path="url(#a)"><path fill="#545A84" d="M.688 8.428c.343 0 .625.281.625.625a5.704 5.704 0 0 0 5.696 5.697 5.701 5.701 0 0 0 5.694-5.697 5.701 5.701 0 0 0-5.697-5.694H2.122l1.062 1.063a.626.626 0 0 1-.44 1.068.623.623 0 0 1-.44-.184L.183 3.187a.62.62 0 0 1 0-.881L2.304.184a.626.626 0 0 1 .884.885l-1.041 1.04h4.862a6.9 6.9 0 0 1 4.913 2.035 6.908 6.908 0 0 1 2.031 4.909c0 1.853-.722 3.6-2.034 4.912A6.9 6.9 0 0 1 7.006 16a6.9 6.9 0 0 1-4.912-2.035A6.9 6.9 0 0 1 .059 9.053c0-.319.282-.625.625-.625h.003Z"/></g><defs><clipPath id="a"><path fill="#fff" d="M13.953 0H0v16h13.953z"/></clipPath></defs></svg>