<svg xmlns="http://www.w3.org/2000/svg" fill="none" viewBox="0 0 16 13"><path fill="#010101" d="M12.875 12.275h-9.75A3.13 3.13 0 0 1 0 9.15V3.125A3.13 3.13 0 0 1 3.125 0h9.75A3.13 3.13 0 0 1 16 3.125V9.15a3.13 3.13 0 0 1-3.125 3.125ZM3.125 1.25c-1.034 0-1.875.84-1.875 1.875V9.15c0 1.034.84 1.875 1.875 1.875h9.75c1.034 0 1.875-.84 1.875-1.875V3.125c0-1.034-.84-1.875-1.875-1.875h-9.75Z"/><path fill="#868BB4" d="M11.085 6.756H4.913a.627.627 0 0 1-.625-.625c0-.343.28-.625.625-.625h6.171c.344 0 .626.282.626.625a.627.627 0 0 1-.626.625Z"/></svg>