<svg xmlns="http://www.w3.org/2000/svg" fill="none" viewBox="0 0 16 16"><g clip-path="url(#a)"><path fill="#010101" d="M4.316 6.428a1.044 1.044 0 1 0 0-2.087 1.044 1.044 0 0 0 0 2.087ZM5.722 11.981a.63.63 0 0 1-.413-.153 5.371 5.371 0 0 0-3.53-1.325c-1.3 0-.698.034-1.035.1a.63.63 0 0 1-.735-.494.63.63 0 0 1 .494-.734 6.646 6.646 0 0 1 4.963 1.003 8.567 8.567 0 0 1 2.768-3.21 8.543 8.543 0 0 1 4.922-1.546c1.772 0 1.616.112 2.388.337a.63.63 0 0 1 .428.775.63.63 0 0 1-.775.429 7.35 7.35 0 0 0-2.04-.288 7.28 7.28 0 0 0-4.204 1.322 7.345 7.345 0 0 0-2.653 3.39.615.615 0 0 1-.584.4l.006-.006Z"/><path fill="#868BB4" d="M12.875 15.622h-9.75A3.128 3.128 0 0 1 0 12.497V3.125A3.13 3.13 0 0 1 3.125 0h9.75A3.13 3.13 0 0 1 16 3.125v9.372a3.13 3.13 0 0 1-3.125 3.125ZM3.125 1.25c-1.034 0-1.875.84-1.875 1.875v9.372c0 1.034.84 1.875 1.875 1.875h9.75c1.034 0 1.875-.84 1.875-1.875V3.125c0-1.034-.84-1.875-1.875-1.875h-9.75Z"/></g><defs><clipPath id="a"><path fill="#fff" d="M0 0h16v15.622H0z"/></clipPath></defs></svg>